0
SECTION
2
HEADER
9
$INSUNITS
70
4
0
ENDSEC
0
SECTION
2
TABLES
0
TABLE
2
LTYPE
0
LTYPE
72
65
70
0
2
CONTINUOUS
3
______
73
0
40
0
0
LTYPE
72
65
70
0
2
DASHED
3
_ _ _ 
73
2
40
7.5
49
5
49
-2.5
0
LTYPE
72
65
70
0
2
DOTTED
3
. . . 
73
2
40
1.5
49
0.5
49
-1
0
ENDTAB
0
TABLE
2
LAYER
0
ENDTAB
0
ENDSEC
0
SECTION
2
ENTITIES
0
LINE
8
0
6
CONTINUOUS
10
68.2221026
20
-123.1475315
11
74.805105
21
-85.8134696
0
LINE
8
0
6
CONTINUOUS
10
77.1220169
20
-84.1911505
11
110.4787019
21
-90.0728339
0
LINE
8
0
6
CONTINUOUS
10
112.7935304
20
-88.4621298
11
116.3532934
21
-68.9477076
0
LINE
8
0
6
CONTINUOUS
10
118.6681219
20
-67.3370035
11
133.3707089
21
-69.9294662
0
LINE
8
0
6
CONTINUOUS
10
135.676523
20
-68.3650769
11
135.8549921
21
-67.5025098
0
LINE
8
0
6
CONTINUOUS
10
138.1608062
20
-65.9381205
11
156.8487791
21
-69.2333143
0
LINE
8
0
6
CONTINUOUS
10
158.4804829
20
-71.4919943
11
158.3531736
21
-72.3635824
0
LINE
8
0
6
CONTINUOUS
10
159.9848774
20
-74.6222623
11
174.7331269
21
-77.2227766
0
LINE
8
0
6
CONTINUOUS
10
176.3648307
20
-79.4814565
11
176.2375215
21
-80.3530447
0
LINE
8
0
6
CONTINUOUS
10
177.8692253
20
-82.6117246
11
194.3575219
21
-85.5190562
0
LINE
8
0
6
CONTINUOUS
10
194.7048182
20
-85.5494407
11
245.64057
21
-85.5494407
0
LINE
8
0
6
CONTINUOUS
10
245.9878663
20
-85.5190562
11
262.4761629
21
-82.6117246
0
LINE
8
0
6
CONTINUOUS
10
264.1078667
20
-80.3530447
11
263.9805575
21
-79.4814565
0
LINE
8
0
6
CONTINUOUS
10
265.6122613
20
-77.2227766
11
280.3605108
21
-74.6222623
0
LINE
8
0
6
CONTINUOUS
10
281.9922146
20
-72.3635824
11
281.8649053
21
-71.4919943
0
LINE
8
0
6
CONTINUOUS
10
283.4966091
20
-69.2333143
11
302.184582
21
-65.9381205
0
LINE
8
0
6
CONTINUOUS
10
304.4903961
20
-67.5025098
11
304.6688652
21
-68.3650769
0
LINE
8
0
6
CONTINUOUS
10
306.9746793
20
-69.9294662
11
321.6772663
21
-67.3370035
0
LINE
8
0
6
CONTINUOUS
10
323.9920948
20
-68.9477076
11
327.5518578
21
-88.4621298
0
LINE
8
0
6
CONTINUOUS
10
329.8666863
20
-90.0728339
11
363.2233713
21
-84.1911505
0
LINE
8
0
6
CONTINUOUS
10
365.5402832
20
-85.8134696
11
372.1232856
21
-123.1475315
0
LINE
8
0
6
CONTINUOUS
10
370.5009665
20
-125.4644434
11
333.1588957
21
-132.0488579
0
LINE
8
0
6
CONTINUOUS
10
330.8530816
20
-130.4844688
11
330.6746124
21
-129.6219013
0
LINE
8
0
6
CONTINUOUS
10
328.3687983
20
-128.0575122
11
313.6205489
21
-130.6580264
0
LINE
8
0
6
CONTINUOUS
10
311.3147348
20
-129.0936371
11
311.1362657
21
-128.2310699
0
LINE
8
0
6
CONTINUOUS
10
308.8304516
20
-126.6666806
11
298.0219255
21
-128.5725154
0
LINE
8
0
6
CONTINUOUS
10
296.3902217
20
-130.8311953
11
296.517531
21
-131.7027834
0
LINE
8
0
6
CONTINUOUS
10
294.8858272
20
-133.9614633
11
285.3957869
21
-135.6348135
0
LINE
8
0
6
CONTINUOUS
10
283.8009142
20
-138.0819008
11
289.1405473
21
-159.8014448
0
LINE
8
0
6
CONTINUOUS
10
287.7160163
20
-162.2107683
11
272.8917753
21
-166.1829117
0
LINE
8
0
6
CONTINUOUS
10
271.4095507
20
-168.138208
11
271.423919
21
-169.3638432
0
LINE
8
0
6
CONTINUOUS
10
270.3007986
20
-171.1848759
11
252.3346562
21
-179.9475491
0
LINE
8
0
6
CONTINUOUS
10
251.4579139
20
-180.149961
11
188.8874743
21
-180.149961
0
LINE
8
0
6
CONTINUOUS
10
188.010732
20
-179.9475491
11
170.0445896
21
-171.1848759
0
LINE
8
0
6
CONTINUOUS
10
168.9214692
20
-169.3638432
11
168.9358375
21
-168.138208
0
LINE
8
0
6
CONTINUOUS
10
167.4536129
20
-166.1829117
11
152.6293719
21
-162.2107683
0
LINE
8
0
6
CONTINUOUS
10
151.2048409
20
-159.8014448
11
156.544474
21
-138.0819008
0
LINE
8
0
6
CONTINUOUS
10
154.9496013
20
-135.6348135
11
145.459561
21
-133.9614633
0
LINE
8
0
6
CONTINUOUS
10
143.8278572
20
-131.7027834
11
143.9551665
21
-130.8311953
0
LINE
8
0
6
CONTINUOUS
10
142.3234627
20
-128.5725154
11
131.5149366
21
-126.6666806
0
LINE
8
0
6
CONTINUOUS
10
129.2091225
20
-128.2310699
11
129.0306534
21
-129.0936371
0
LINE
8
0
6
CONTINUOUS
10
126.7248393
20
-130.6580264
11
111.9765899
21
-128.0575122
0
LINE
8
0
6
CONTINUOUS
10
109.6707758
20
-129.6219013
11
109.4923066
21
-130.4844688
0
LINE
8
0
6
CONTINUOUS
10
107.1864925
20
-132.0488579
11
69.8444217
21
-125.4644434
0
ARC
8
0
6
CONTINUOUS
10
76.7747206
20
-86.1607659
40
2
50
79.9999992
51
169.9999992
0
ARC
8
0
6
CONTINUOUS
10
110.8259983
20
-88.1032184
40
2
50
259.9999992
51
349.661943
0
ARC
8
0
6
CONTINUOUS
10
118.3208255
20
-69.306619
40
2
50
79.9999992
51
169.661943
0
ARC
8
0
6
CONTINUOUS
10
133.7180053
20
-67.9598507
40
2
50
259.9999992
51
348.3101926
0
ARC
8
0
6
CONTINUOUS
10
137.8135098
20
-67.907736
40
2
50
79.9999992
51
168.3101926
0
ARC
8
0
6
CONTINUOUS
10
156.5014827
20
-71.2029299
40
2
50
351.6898091
51
79.9999992
0
ARC
8
0
6
CONTINUOUS
10
160.3321738
20
-72.6526468
40
2
50
171.6898091
51
259.9999992
0
ARC
8
0
6
CONTINUOUS
10
174.3858305
20
-79.1923921
40
2
50
351.6898091
51
79.9999992
0
ARC
8
0
6
CONTINUOUS
10
178.2165217
20
-80.6421091
40
2
50
171.6898091
51
259.9999992
0
ARC
8
0
6
CONTINUOUS
10
194.7048182
20
-83.5494407
40
2
50
259.9999992
51
270
0
ARC
8
0
6
CONTINUOUS
10
245.64057
20
-83.5494407
40
2
50
270
51
280.0000008
0
ARC
8
0
6
CONTINUOUS
10
262.1288665
20
-80.6421091
40
2
50
280.0000008
51
8.3101909
0
ARC
8
0
6
CONTINUOUS
10
265.9595577
20
-79.1923921
40
2
50
100.0000008
51
188.3101909
0
ARC
8
0
6
CONTINUOUS
10
280.0132144
20
-72.6526468
40
2
50
280.0000008
51
8.3101909
0
ARC
8
0
6
CONTINUOUS
10
283.8439055
20
-71.2029299
40
2
50
100.0000008
51
188.3101909
0
ARC
8
0
6
CONTINUOUS
10
302.5318784
20
-67.907736
40
2
50
11.6898074
51
100.0000008
0
ARC
8
0
6
CONTINUOUS
10
306.6273829
20
-67.9598507
40
2
50
191.6898074
51
280.0000008
0
ARC
8
0
6
CONTINUOUS
10
322.0245627
20
-69.306619
40
2
50
10.338057
51
100.0000008
0
ARC
8
0
6
CONTINUOUS
10
329.5193899
20
-88.1032184
40
2
50
190.338057
51
280.0000008
0
ARC
8
0
6
CONTINUOUS
10
363.5706676
20
-86.1607659
40
2
50
10.0000008
51
100.0000008
0
ARC
8
0
6
CONTINUOUS
10
370.1536701
20
-123.4948278
40
2
50
280.0000008
51
10.0000008
0
ARC
8
0
6
CONTINUOUS
10
332.8115993
20
-130.0792424
40
2
50
191.689813
51
280.0000008
0
ARC
8
0
6
CONTINUOUS
10
328.7160947
20
-130.0271277
40
2
50
11.689813
51
100.0000008
0
ARC
8
0
6
CONTINUOUS
10
313.2732525
20
-128.6884109
40
2
50
191.6898074
51
280.0000008
0
ARC
8
0
6
CONTINUOUS
10
309.177748
20
-128.6362961
40
2
50
11.6898074
51
100.0000008
0
ARC
8
0
6
CONTINUOUS
10
298.3692219
20
-130.5421309
40
2
50
100.0000008
51
188.3101909
0
ARC
8
0
6
CONTINUOUS
10
294.5385308
20
-131.9918478
40
2
50
280.0000008
51
8.3101909
0
ARC
8
0
6
CONTINUOUS
10
285.7430833
20
-137.604429
40
2
50
100.0000008
51
193.8119446
0
ARC
8
0
6
CONTINUOUS
10
287.1983782
20
-160.2789166
40
2
50
284.9999979
51
13.8119446
0
ARC
8
0
6
CONTINUOUS
10
273.4094133
20
-168.1147634
40
2
50
104.9999979
51
180.6716537
0
ARC
8
0
6
CONTINUOUS
10
269.4240564
20
-169.3872878
40
2
50
295.9999988
51
0.6716537
0
ARC
8
0
6
CONTINUOUS
10
251.4579139
20
-178.149961
40
2
50
270
51
295.9999988
0
ARC
8
0
6
CONTINUOUS
10
188.8874743
20
-178.149961
40
2
50
244.0000012
51
270
0
ARC
8
0
6
CONTINUOUS
10
170.9213318
20
-169.3872878
40
2
50
179.3283463
51
244.0000012
0
ARC
8
0
6
CONTINUOUS
10
166.9359749
20
-168.1147634
40
2
50
359.3283463
51
75.0000021
0
ARC
8
0
6
CONTINUOUS
10
153.14701
20
-160.2789166
40
2
50
166.1880554
51
255.0000021
0
ARC
8
0
6
CONTINUOUS
10
154.6023049
20
-137.604429
40
2
50
346.1880554
51
79.9999992
0
ARC
8
0
6
CONTINUOUS
10
145.8068574
20
-131.9918478
40
2
50
171.6898091
51
259.9999992
0
ARC
8
0
6
CONTINUOUS
10
141.9761663
20
-130.5421309
40
2
50
351.6898091
51
79.9999992
0
ARC
8
0
6
CONTINUOUS
10
131.1676402
20
-128.6362961
40
2
50
79.9999992
51
168.3101926
0
ARC
8
0
6
CONTINUOUS
10
127.0721357
20
-128.6884109
40
2
50
259.9999992
51
348.3101926
0
ARC
8
0
6
CONTINUOUS
10
111.6292935
20
-130.0271277
40
2
50
79.9999992
51
168.310187
0
ARC
8
0
6
CONTINUOUS
10
107.5337889
20
-130.0792424
40
2
50
259.9999992
51
348.310187
0
ARC
8
0
6
CONTINUOUS
10
70.1917181
20
-123.4948278
40
2
50
169.9999992
51
259.9999992
0
CIRCLE
8
0
6
CONTINUOUS
10
220.1726941
20
-164.8661628
40
1.1
0
CIRCLE
8
0
6
CONTINUOUS
10
172.5699953
20
-89.4148782
40
1.1
0
CIRCLE
8
0
6
CONTINUOUS
10
267.7753929
20
-89.4148782
40
1.1
0
CIRCLE
8
0
6
CONTINUOUS
10
164.6308007
20
-134.4402885
40
1.1
0
CIRCLE
8
0
6
CONTINUOUS
10
275.7145875
20
-134.4402885
40
1.1
0
CIRCLE
8
0
6
CONTINUOUS
10
131.673903
20
-102.5148645
40
1.1
0
CIRCLE
8
0
6
CONTINUOUS
10
308.6714852
20
-102.5148645
40
1.1
0
CIRCLE
8
0
6
CONTINUOUS
10
94.4166083
20
-94.9782043
40
1.1
0
CIRCLE
8
0
6
CONTINUOUS
10
345.9287799
20
-94.9782043
40
1.1
0
CIRCLE
8
0
6
CONTINUOUS
10
89.7854114
20
-121.243027
40
1.1
0
CIRCLE
8
0
6
CONTINUOUS
10
350.5599768
20
-121.243027
40
1.1
0
ENDSEC
0
EOF