0
SECTION
2
HEADER
9
$INSUNITS
70
4
0
ENDSEC
0
SECTION
2
TABLES
0
TABLE
2
LTYPE
0
LTYPE
72
65
70
0
2
CONTINUOUS
3
______
73
0
40
0
0
LTYPE
72
65
70
0
2
DASHED
3
_ _ _ 
73
2
40
7.5
49
5
49
-2.5
0
LTYPE
72
65
70
0
2
DOTTED
3
. . . 
73
2
40
1.5
49
0.5
49
-1
0
ENDTAB
0
TABLE
2
LAYER
0
ENDTAB
0
ENDSEC
0
SECTION
2
ENTITIES
0
LINE
8
0
6
CONTINUOUS
10
68.2221026
20
-123.1475315
11
74.805105
21
-85.8134696
0
LINE
8
0
6
CONTINUOUS
10
77.1220169
20
-84.1911505
11
110.4787019
21
-90.0728339
0
LINE
8
0
6
CONTINUOUS
10
112.7935304
20
-88.4621298
11
116.3532934
21
-68.9477076
0
LINE
8
0
6
CONTINUOUS
10
118.6681219
20
-67.3370035
11
133.3707089
21
-69.9294662
0
LINE
8
0
6
CONTINUOUS
10
135.676523
20
-68.3650769
11
135.8549921
21
-67.5025098
0
LINE
8
0
6
CONTINUOUS
10
138.1608062
20
-65.9381205
11
156.8487791
21
-69.2333143
0
LINE
8
0
6
CONTINUOUS
10
158.4804829
20
-71.4919943
11
158.3531736
21
-72.3635824
0
LINE
8
0
6
CONTINUOUS
10
159.9848774
20
-74.6222623
11
174.7331269
21
-77.2227766
0
LINE
8
0
6
CONTINUOUS
10
176.3648307
20
-79.4814565
11
176.2375215
21
-80.3530447
0
LINE
8
0
6
CONTINUOUS
10
177.8692253
20
-82.6117246
11
194.3575219
21
-85.5190562
0
LINE
8
0
6
CONTINUOUS
10
194.7048182
20
-85.5494407
11
199.1726941
21
-85.5494407
0
LINE
8
0
6
CONTINUOUS
10
214.5726941
20
-85.5494407
11
225.7726941
21
-85.5494407
0
LINE
8
0
6
CONTINUOUS
10
241.1726941
20
-85.5494407
11
245.64057
21
-85.5494407
0
LINE
8
0
6
CONTINUOUS
10
245.9878663
20
-85.5190562
11
262.4761629
21
-82.6117246
0
LINE
8
0
6
CONTINUOUS
10
264.1078667
20
-80.3530447
11
263.9805575
21
-79.4814565
0
LINE
8
0
6
CONTINUOUS
10
265.6122613
20
-77.2227766
11
280.3605108
21
-74.6222623
0
LINE
8
0
6
CONTINUOUS
10
281.9922146
20
-72.3635824
11
281.8649053
21
-71.4919943
0
LINE
8
0
6
CONTINUOUS
10
283.4966091
20
-69.2333143
11
302.184582
21
-65.9381205
0
LINE
8
0
6
CONTINUOUS
10
304.4903961
20
-67.5025098
11
304.6688652
21
-68.3650769
0
LINE
8
0
6
CONTINUOUS
10
306.9746793
20
-69.9294662
11
321.6772663
21
-67.3370035
0
LINE
8
0
6
CONTINUOUS
10
323.9920948
20
-68.9477076
11
327.5518578
21
-88.4621298
0
LINE
8
0
6
CONTINUOUS
10
329.8666863
20
-90.0728339
11
363.2233713
21
-84.1911505
0
LINE
8
0
6
CONTINUOUS
10
365.5402832
20
-85.8134696
11
372.1232856
21
-123.1475315
0
LINE
8
0
6
CONTINUOUS
10
370.5009665
20
-125.4644434
11
333.1588957
21
-132.0488579
0
LINE
8
0
6
CONTINUOUS
10
330.8530816
20
-130.4844688
11
330.6746124
21
-129.6219013
0
LINE
8
0
6
CONTINUOUS
10
328.3687983
20
-128.0575122
11
313.6205489
21
-130.6580264
0
LINE
8
0
6
CONTINUOUS
10
311.3147348
20
-129.0936371
11
311.1362657
21
-128.2310699
0
LINE
8
0
6
CONTINUOUS
10
308.8304516
20
-126.6666806
11
298.0219255
21
-128.5725154
0
LINE
8
0
6
CONTINUOUS
10
296.3902217
20
-130.8311953
11
296.517531
21
-131.7027834
0
LINE
8
0
6
CONTINUOUS
10
294.8858272
20
-133.9614633
11
285.3957869
21
-135.6348135
0
LINE
8
0
6
CONTINUOUS
10
283.8009142
20
-138.0819008
11
289.1405473
21
-159.8014448
0
LINE
8
0
6
CONTINUOUS
10
287.7160163
20
-162.2107683
11
272.8917753
21
-166.1829117
0
LINE
8
0
6
CONTINUOUS
10
271.4095507
20
-168.138208
11
271.423919
21
-169.3638432
0
LINE
8
0
6
CONTINUOUS
10
270.3007986
20
-171.1848759
11
252.3346562
21
-179.9475491
0
LINE
8
0
6
CONTINUOUS
10
251.4579139
20
-180.149961
11
188.8874743
21
-180.149961
0
LINE
8
0
6
CONTINUOUS
10
188.010732
20
-179.9475491
11
170.0445896
21
-171.1848759
0
LINE
8
0
6
CONTINUOUS
10
168.9214692
20
-169.3638432
11
168.9358375
21
-168.138208
0
LINE
8
0
6
CONTINUOUS
10
167.4536129
20
-166.1829117
11
152.6293719
21
-162.2107683
0
LINE
8
0
6
CONTINUOUS
10
151.2048409
20
-159.8014448
11
156.544474
21
-138.0819008
0
LINE
8
0
6
CONTINUOUS
10
154.9496013
20
-135.6348135
11
145.459561
21
-133.9614633
0
LINE
8
0
6
CONTINUOUS
10
143.8278572
20
-131.7027834
11
143.9551665
21
-130.8311953
0
LINE
8
0
6
CONTINUOUS
10
142.3234627
20
-128.5725154
11
131.5149366
21
-126.6666806
0
LINE
8
0
6
CONTINUOUS
10
129.2091225
20
-128.2310699
11
129.0306534
21
-129.0936371
0
LINE
8
0
6
CONTINUOUS
10
126.7248393
20
-130.6580264
11
111.9765899
21
-128.0575122
0
LINE
8
0
6
CONTINUOUS
10
109.6707758
20
-129.6219013
11
109.4923066
21
-130.4844688
0
LINE
8
0
6
CONTINUOUS
10
107.1864925
20
-132.0488579
11
69.8444217
21
-125.4644434
0
ARC
8
0
6
CONTINUOUS
10
76.7747206
20
-86.1607659
40
2
50
79.9999992
51
169.9999992
0
ARC
8
0
6
CONTINUOUS
10
110.8259983
20
-88.1032184
40
2
50
259.9999992
51
349.661943
0
ARC
8
0
6
CONTINUOUS
10
118.3208255
20
-69.306619
40
2
50
79.9999992
51
169.661943
0
ARC
8
0
6
CONTINUOUS
10
133.7180053
20
-67.9598507
40
2
50
259.9999992
51
348.3101926
0
ARC
8
0
6
CONTINUOUS
10
137.8135098
20
-67.907736
40
2
50
79.9999992
51
168.3101926
0
ARC
8
0
6
CONTINUOUS
10
156.5014827
20
-71.2029299
40
2
50
351.6898091
51
79.9999992
0
ARC
8
0
6
CONTINUOUS
10
160.3321738
20
-72.6526468
40
2
50
171.6898091
51
259.9999992
0
ARC
8
0
6
CONTINUOUS
10
174.3858305
20
-79.1923921
40
2
50
351.6898091
51
79.9999992
0
ARC
8
0
6
CONTINUOUS
10
178.2165217
20
-80.6421091
40
2
50
171.6898091
51
259.9999992
0
ARC
8
0
6
CONTINUOUS
10
194.7048182
20
-83.5494407
40
2
50
259.9999992
51
270
0
ARC
8
0
6
CONTINUOUS
10
245.64057
20
-83.5494407
40
2
50
270
51
280.0000008
0
ARC
8
0
6
CONTINUOUS
10
262.1288665
20
-80.6421091
40
2
50
280.0000008
51
8.3101909
0
ARC
8
0
6
CONTINUOUS
10
265.9595577
20
-79.1923921
40
2
50
100.0000008
51
188.3101909
0
ARC
8
0
6
CONTINUOUS
10
280.0132144
20
-72.6526468
40
2
50
280.0000008
51
8.3101909
0
ARC
8
0
6
CONTINUOUS
10
283.8439055
20
-71.2029299
40
2
50
100.0000008
51
188.3101909
0
ARC
8
0
6
CONTINUOUS
10
302.5318784
20
-67.907736
40
2
50
11.6898074
51
100.0000008
0
ARC
8
0
6
CONTINUOUS
10
306.6273829
20
-67.9598507
40
2
50
191.6898074
51
280.0000008
0
ARC
8
0
6
CONTINUOUS
10
322.0245627
20
-69.306619
40
2
50
10.338057
51
100.0000008
0
ARC
8
0
6
CONTINUOUS
10
329.5193899
20
-88.1032184
40
2
50
190.338057
51
280.0000008
0
ARC
8
0
6
CONTINUOUS
10
363.5706676
20
-86.1607659
40
2
50
10.0000008
51
100.0000008
0
ARC
8
0
6
CONTINUOUS
10
370.1536701
20
-123.4948278
40
2
50
280.0000008
51
10.0000008
0
ARC
8
0
6
CONTINUOUS
10
332.8115993
20
-130.0792424
40
2
50
191.689813
51
280.0000008
0
ARC
8
0
6
CONTINUOUS
10
328.7160947
20
-130.0271277
40
2
50
11.689813
51
100.0000008
0
ARC
8
0
6
CONTINUOUS
10
313.2732525
20
-128.6884109
40
2
50
191.6898074
51
280.0000008
0
ARC
8
0
6
CONTINUOUS
10
309.177748
20
-128.6362961
40
2
50
11.6898074
51
100.0000008
0
ARC
8
0
6
CONTINUOUS
10
298.3692219
20
-130.5421309
40
2
50
100.0000008
51
188.3101909
0
ARC
8
0
6
CONTINUOUS
10
294.5385308
20
-131.9918478
40
2
50
280.0000008
51
8.3101909
0
ARC
8
0
6
CONTINUOUS
10
285.7430833
20
-137.604429
40
2
50
100.0000008
51
193.8119446
0
ARC
8
0
6
CONTINUOUS
10
287.1983782
20
-160.2789166
40
2
50
284.9999979
51
13.8119446
0
ARC
8
0
6
CONTINUOUS
10
273.4094133
20
-168.1147634
40
2
50
104.9999979
51
180.6716537
0
ARC
8
0
6
CONTINUOUS
10
269.4240564
20
-169.3872878
40
2
50
295.9999988
51
0.6716537
0
ARC
8
0
6
CONTINUOUS
10
251.4579139
20
-178.149961
40
2
50
270
51
295.9999988
0
ARC
8
0
6
CONTINUOUS
10
188.8874743
20
-178.149961
40
2
50
244.0000012
51
270
0
ARC
8
0
6
CONTINUOUS
10
170.9213318
20
-169.3872878
40
2
50
179.3283463
51
244.0000012
0
ARC
8
0
6
CONTINUOUS
10
166.9359749
20
-168.1147634
40
2
50
359.3283463
51
75.0000021
0
ARC
8
0
6
CONTINUOUS
10
153.14701
20
-160.2789166
40
2
50
166.1880554
51
255.0000021
0
ARC
8
0
6
CONTINUOUS
10
154.6023049
20
-137.604429
40
2
50
346.1880554
51
79.9999992
0
ARC
8
0
6
CONTINUOUS
10
145.8068574
20
-131.9918478
40
2
50
171.6898091
51
259.9999992
0
ARC
8
0
6
CONTINUOUS
10
141.9761663
20
-130.5421309
40
2
50
351.6898091
51
79.9999992
0
ARC
8
0
6
CONTINUOUS
10
131.1676402
20
-128.6362961
40
2
50
79.9999992
51
168.3101926
0
ARC
8
0
6
CONTINUOUS
10
127.0721357
20
-128.6884109
40
2
50
259.9999992
51
348.3101926
0
ARC
8
0
6
CONTINUOUS
10
111.6292935
20
-130.0271277
40
2
50
79.9999992
51
168.310187
0
ARC
8
0
6
CONTINUOUS
10
107.5337889
20
-130.0792424
40
2
50
259.9999992
51
348.310187
0
ARC
8
0
6
CONTINUOUS
10
70.1917181
20
-123.4948278
40
2
50
169.9999992
51
259.9999992
0
LINE
8
0
6
CONTINUOUS
10
73.585994
20
-121.1181303
11
86.3884947
21
-123.3755566
0
LINE
8
0
6
CONTINUOUS
10
86.3884947
20
-123.3755566
11
88.645921
21
-110.5730559
0
LINE
8
0
6
CONTINUOUS
10
88.645921
20
-110.5730559
11
75.8434203
21
-108.3156296
0
LINE
8
0
6
CONTINUOUS
10
75.8434203
20
-108.3156296
11
73.585994
21
-121.1181303
0
LINE
8
0
6
CONTINUOUS
10
76.8939918
20
-102.3575426
11
89.6964925
21
-104.6149689
0
LINE
8
0
6
CONTINUOUS
10
89.6964925
20
-104.6149689
11
91.9539188
21
-91.8124682
0
LINE
8
0
6
CONTINUOUS
10
91.9539188
20
-91.8124682
11
79.1514181
21
-89.5550419
0
LINE
8
0
6
CONTINUOUS
10
79.1514181
20
-89.5550419
11
76.8939918
21
-102.3575426
0
LINE
8
0
6
CONTINUOUS
10
92.2973413
20
-124.4174456
11
105.099842
21
-126.6748719
0
LINE
8
0
6
CONTINUOUS
10
105.099842
20
-126.6748719
11
107.3572683
21
-113.8723712
0
LINE
8
0
6
CONTINUOUS
10
107.3572683
20
-113.8723712
11
94.5547676
21
-111.6149449
0
LINE
8
0
6
CONTINUOUS
10
94.5547676
20
-111.6149449
11
92.2973413
21
-124.4174456
0
LINE
8
0
6
CONTINUOUS
10
95.6053391
20
-105.6568579
11
108.4078398
21
-107.9142842
0
LINE
8
0
6
CONTINUOUS
10
108.4078398
20
-107.9142842
11
110.6652661
21
-95.1117835
0
LINE
8
0
6
CONTINUOUS
10
110.6652661
20
-95.1117835
11
97.8627654
21
-92.8543572
0
LINE
8
0
6
CONTINUOUS
10
97.8627654
20
-92.8543572
11
95.6053391
21
-105.6568579
0
LINE
8
0
6
CONTINUOUS
10
111.8356881
20
-123.0266141
11
124.6381888
21
-125.2840404
0
LINE
8
0
6
CONTINUOUS
10
124.6381888
20
-125.2840404
11
126.8956151
21
-112.4815397
0
LINE
8
0
6
CONTINUOUS
10
126.8956151
20
-112.4815397
11
114.0931144
21
-110.2241134
0
LINE
8
0
6
CONTINUOUS
10
114.0931144
20
-110.2241134
11
111.8356881
21
-123.0266141
0
LINE
8
0
6
CONTINUOUS
10
115.1436859
20
-104.2660264
11
127.9461866
21
-106.5234527
0
LINE
8
0
6
CONTINUOUS
10
127.9461866
20
-106.5234527
11
130.2036129
21
-93.720952
0
LINE
8
0
6
CONTINUOUS
10
130.2036129
20
-93.720952
11
117.4011122
21
-91.4635257
0
LINE
8
0
6
CONTINUOUS
10
117.4011122
20
-91.4635257
11
115.1436859
21
-104.2660264
0
LINE
8
0
6
CONTINUOUS
10
118.4516837
20
-85.5054387
11
131.2541844
21
-87.762865
0
LINE
8
0
6
CONTINUOUS
10
131.2541844
20
-87.762865
11
133.5116107
21
-74.9603643
0
LINE
8
0
6
CONTINUOUS
10
133.5116107
20
-74.9603643
11
120.70911
21
-72.702938
0
LINE
8
0
6
CONTINUOUS
10
120.70911
20
-72.702938
11
118.4516837
21
-85.5054387
0
LINE
8
0
6
CONTINUOUS
10
131.3740348
20
-121.6357825
11
144.1765355
21
-123.8932088
0
LINE
8
0
6
CONTINUOUS
10
144.1765355
20
-123.8932088
11
146.4339618
21
-111.0907081
0
LINE
8
0
6
CONTINUOUS
10
146.4339618
20
-111.0907081
11
133.6314611
21
-108.8332818
0
LINE
8
0
6
CONTINUOUS
10
133.6314611
20
-108.8332818
11
131.3740348
21
-121.6357825
0
LINE
8
0
6
CONTINUOUS
10
134.6820326
20
-102.8751949
11
147.4845333
21
-105.1326212
0
LINE
8
0
6
CONTINUOUS
10
147.4845333
20
-105.1326212
11
149.7419596
21
-92.3301205
0
LINE
8
0
6
CONTINUOUS
10
149.7419596
20
-92.3301205
11
136.9394589
21
-90.0726942
0
LINE
8
0
6
CONTINUOUS
10
136.9394589
20
-90.0726942
11
134.6820326
21
-102.8751949
0
LINE
8
0
6
CONTINUOUS
10
137.9900304
20
-84.1146072
11
150.7925311
21
-86.3720335
0
LINE
8
0
6
CONTINUOUS
10
150.7925311
20
-86.3720335
11
153.0499574
21
-73.5695328
0
LINE
8
0
6
CONTINUOUS
10
153.0499574
20
-73.5695328
11
140.2474567
21
-71.3121065
0
LINE
8
0
6
CONTINUOUS
10
140.2474567
20
-71.3121065
11
137.9900304
21
-84.1146072
0
LINE
8
0
6
CONTINUOUS
10
149.2583827
20
-129.6252448
11
162.0608834
21
-131.8826711
0
LINE
8
0
6
CONTINUOUS
10
162.0608834
20
-131.8826711
11
164.3183097
21
-119.0801704
0
LINE
8
0
6
CONTINUOUS
10
164.3183097
20
-119.0801704
11
151.515809
21
-116.8227441
0
LINE
8
0
6
CONTINUOUS
10
151.515809
20
-116.8227441
11
149.2583827
21
-129.6252448
0
LINE
8
0
6
CONTINUOUS
10
152.5663805
20
-110.8646572
11
165.3688812
21
-113.1220835
0
LINE
8
0
6
CONTINUOUS
10
165.3688812
20
-113.1220835
11
167.6263075
21
-100.3195828
0
LINE
8
0
6
CONTINUOUS
10
167.6263075
20
-100.3195828
11
154.8238068
21
-98.0621565
0
LINE
8
0
6
CONTINUOUS
10
154.8238068
20
-98.0621565
11
152.5663805
21
-110.8646572
0
LINE
8
0
6
CONTINUOUS
10
155.8743783
20
-92.1040695
11
168.676879
21
-94.3614958
0
LINE
8
0
6
CONTINUOUS
10
168.676879
20
-94.3614958
11
170.9343053
21
-81.5589951
0
LINE
8
0
6
CONTINUOUS
10
170.9343053
20
-81.5589951
11
158.1318046
21
-79.3015688
0
LINE
8
0
6
CONTINUOUS
10
158.1318046
20
-79.3015688
11
155.8743783
21
-92.1040695
0
LINE
8
0
6
CONTINUOUS
10
167.1427306
20
-137.6147071
11
179.9452313
21
-139.8721334
0
LINE
8
0
6
CONTINUOUS
10
179.9452313
20
-139.8721334
11
182.2026576
21
-127.0696327
0
LINE
8
0
6
CONTINUOUS
10
182.2026576
20
-127.0696327
11
169.4001569
21
-124.8122064
0
LINE
8
0
6
CONTINUOUS
10
169.4001569
20
-124.8122064
11
167.1427306
21
-137.6147071
0
LINE
8
0
6
CONTINUOUS
10
170.4507284
20
-118.8541195
11
183.2532291
21
-121.1115458
0
LINE
8
0
6
CONTINUOUS
10
183.2532291
20
-121.1115458
11
185.5106554
21
-108.3090451
0
LINE
8
0
6
CONTINUOUS
10
185.5106554
20
-108.3090451
11
172.7081547
21
-106.0516188
0
LINE
8
0
6
CONTINUOUS
10
172.7081547
20
-106.0516188
11
170.4507284
21
-118.8541195
0
LINE
8
0
6
CONTINUOUS
10
173.7587261
20
-100.0935318
11
186.5612268
21
-102.3509581
0
LINE
8
0
6
CONTINUOUS
10
186.5612268
20
-102.3509581
11
188.8186531
21
-89.5484574
0
LINE
8
0
6
CONTINUOUS
10
188.8186531
20
-89.5484574
11
176.0161524
21
-87.2910311
0
LINE
8
0
6
CONTINUOUS
10
176.0161524
20
-87.2910311
11
173.7587261
21
-100.0935318
0
LINE
8
0
6
CONTINUOUS
10
353.9568935
20
-123.3755566
11
366.7593942
21
-121.1181303
0
LINE
8
0
6
CONTINUOUS
10
366.7593942
20
-121.1181303
11
364.5019679
21
-108.3156296
0
LINE
8
0
6
CONTINUOUS
10
364.5019679
20
-108.3156296
11
351.6994672
21
-110.5730559
0
LINE
8
0
6
CONTINUOUS
10
351.6994672
20
-110.5730559
11
353.9568935
21
-123.3755566
0
LINE
8
0
6
CONTINUOUS
10
350.6488957
20
-104.6149689
11
363.4513964
21
-102.3575426
0
LINE
8
0
6
CONTINUOUS
10
363.4513964
20
-102.3575426
11
361.1939701
21
-89.5550419
0
LINE
8
0
6
CONTINUOUS
10
361.1939701
20
-89.5550419
11
348.3914694
21
-91.8124682
0
LINE
8
0
6
CONTINUOUS
10
348.3914694
20
-91.8124682
11
350.6488957
21
-104.6149689
0
LINE
8
0
6
CONTINUOUS
10
335.2455462
20
-126.6748719
11
348.0480469
21
-124.4174456
0
LINE
8
0
6
CONTINUOUS
10
348.0480469
20
-124.4174456
11
345.7906206
21
-111.6149449
0
LINE
8
0
6
CONTINUOUS
10
345.7906206
20
-111.6149449
11
332.9881199
21
-113.8723712
0
LINE
8
0
6
CONTINUOUS
10
332.9881199
20
-113.8723712
11
335.2455462
21
-126.6748719
0
LINE
8
0
6
CONTINUOUS
10
331.9375484
20
-107.9142842
11
344.7400491
21
-105.6568579
0
LINE
8
0
6
CONTINUOUS
10
344.7400491
20
-105.6568579
11
342.4826228
21
-92.8543572
0
LINE
8
0
6
CONTINUOUS
10
342.4826228
20
-92.8543572
11
329.6801221
21
-95.1117835
0
LINE
8
0
6
CONTINUOUS
10
329.6801221
20
-95.1117835
11
331.9375484
21
-107.9142842
0
LINE
8
0
6
CONTINUOUS
10
315.7071994
20
-125.2840404
11
328.5097001
21
-123.0266141
0
LINE
8
0
6
CONTINUOUS
10
328.5097001
20
-123.0266141
11
326.2522738
21
-110.2241134
0
LINE
8
0
6
CONTINUOUS
10
326.2522738
20
-110.2241134
11
313.4497731
21
-112.4815397
0
LINE
8
0
6
CONTINUOUS
10
313.4497731
20
-112.4815397
11
315.7071994
21
-125.2840404
0
LINE
8
0
6
CONTINUOUS
10
312.3992016
20
-106.5234527
11
325.2017023
21
-104.2660264
0
LINE
8
0
6
CONTINUOUS
10
325.2017023
20
-104.2660264
11
322.944276
21
-91.4635257
0
LINE
8
0
6
CONTINUOUS
10
322.944276
20
-91.4635257
11
310.1417753
21
-93.720952
0
LINE
8
0
6
CONTINUOUS
10
310.1417753
20
-93.720952
11
312.3992016
21
-106.5234527
0
LINE
8
0
6
CONTINUOUS
10
309.0912038
20
-87.762865
11
321.8937045
21
-85.5054387
0
LINE
8
0
6
CONTINUOUS
10
321.8937045
20
-85.5054387
11
319.6362782
21
-72.702938
0
LINE
8
0
6
CONTINUOUS
10
319.6362782
20
-72.702938
11
306.8337775
21
-74.9603643
0
LINE
8
0
6
CONTINUOUS
10
306.8337775
20
-74.9603643
11
309.0912038
21
-87.762865
0
LINE
8
0
6
CONTINUOUS
10
296.1688527
20
-123.8932088
11
308.9713534
21
-121.6357825
0
LINE
8
0
6
CONTINUOUS
10
308.9713534
20
-121.6357825
11
306.7139271
21
-108.8332818
0
LINE
8
0
6
CONTINUOUS
10
306.7139271
20
-108.8332818
11
293.9114264
21
-111.0907081
0
LINE
8
0
6
CONTINUOUS
10
293.9114264
20
-111.0907081
11
296.1688527
21
-123.8932088
0
LINE
8
0
6
CONTINUOUS
10
292.8608549
20
-105.1326212
11
305.6633556
21
-102.8751949
0
LINE
8
0
6
CONTINUOUS
10
305.6633556
20
-102.8751949
11
303.4059293
21
-90.0726942
0
LINE
8
0
6
CONTINUOUS
10
303.4059293
20
-90.0726942
11
290.6034286
21
-92.3301205
0
LINE
8
0
6
CONTINUOUS
10
290.6034286
20
-92.3301205
11
292.8608549
21
-105.1326212
0
LINE
8
0
6
CONTINUOUS
10
289.5528571
20
-86.3720335
11
302.3553578
21
-84.1146072
0
LINE
8
0
6
CONTINUOUS
10
302.3553578
20
-84.1146072
11
300.0979315
21
-71.3121065
0
LINE
8
0
6
CONTINUOUS
10
300.0979315
20
-71.3121065
11
287.2954308
21
-73.5695328
0
LINE
8
0
6
CONTINUOUS
10
287.2954308
20
-73.5695328
11
289.5528571
21
-86.3720335
0
LINE
8
0
6
CONTINUOUS
10
278.2845048
20
-131.8826711
11
291.0870055
21
-129.6252448
0
LINE
8
0
6
CONTINUOUS
10
291.0870055
20
-129.6252448
11
288.8295792
21
-116.8227441
0
LINE
8
0
6
CONTINUOUS
10
288.8295792
20
-116.8227441
11
276.0270785
21
-119.0801704
0
LINE
8
0
6
CONTINUOUS
10
276.0270785
20
-119.0801704
11
278.2845048
21
-131.8826711
0
LINE
8
0
6
CONTINUOUS
10
274.976507
20
-113.1220835
11
287.7790077
21
-110.8646572
0
LINE
8
0
6
CONTINUOUS
10
287.7790077
20
-110.8646572
11
285.5215814
21
-98.0621565
0
LINE
8
0
6
CONTINUOUS
10
285.5215814
20
-98.0621565
11
272.7190807
21
-100.3195828
0
LINE
8
0
6
CONTINUOUS
10
272.7190807
20
-100.3195828
11
274.976507
21
-113.1220835
0
LINE
8
0
6
CONTINUOUS
10
271.6685092
20
-94.3614958
11
284.4710099
21
-92.1040695
0
LINE
8
0
6
CONTINUOUS
10
284.4710099
20
-92.1040695
11
282.2135836
21
-79.3015688
0
LINE
8
0
6
CONTINUOUS
10
282.2135836
20
-79.3015688
11
269.4110829
21
-81.5589951
0
LINE
8
0
6
CONTINUOUS
10
269.4110829
20
-81.5589951
11
271.6685092
21
-94.3614958
0
LINE
8
0
6
CONTINUOUS
10
260.4001569
20
-139.8721334
11
273.2026576
21
-137.6147071
0
LINE
8
0
6
CONTINUOUS
10
273.2026576
20
-137.6147071
11
270.9452313
21
-124.8122064
0
LINE
8
0
6
CONTINUOUS
10
270.9452313
20
-124.8122064
11
258.1427306
21
-127.0696327
0
LINE
8
0
6
CONTINUOUS
10
258.1427306
20
-127.0696327
11
260.4001569
21
-139.8721334
0
LINE
8
0
6
CONTINUOUS
10
257.0921591
20
-121.1115458
11
269.8946598
21
-118.8541195
0
LINE
8
0
6
CONTINUOUS
10
269.8946598
20
-118.8541195
11
267.6372335
21
-106.0516188
0
LINE
8
0
6
CONTINUOUS
10
267.6372335
20
-106.0516188
11
254.8347328
21
-108.3090451
0
LINE
8
0
6
CONTINUOUS
10
254.8347328
20
-108.3090451
11
257.0921591
21
-121.1115458
0
LINE
8
0
6
CONTINUOUS
10
253.7841614
20
-102.3509581
11
266.5866621
21
-100.0935318
0
LINE
8
0
6
CONTINUOUS
10
266.5866621
20
-100.0935318
11
264.3292358
21
-87.2910311
0
LINE
8
0
6
CONTINUOUS
10
264.3292358
20
-87.2910311
11
251.5267351
21
-89.5484574
0
LINE
8
0
6
CONTINUOUS
10
251.5267351
20
-89.5484574
11
253.7841614
21
-102.3509581
0
LINE
8
0
6
CONTINUOUS
10
174.4715304
20
-167.8589116
11
186.155853
21
-173.5577366
0
LINE
8
0
6
CONTINUOUS
10
186.155853
20
-173.5577366
11
191.854678
21
-161.873414
0
LINE
8
0
6
CONTINUOUS
10
191.854678
20
-161.873414
11
180.1703554
21
-156.174589
0
LINE
8
0
6
CONTINUOUS
10
180.1703554
20
-156.174589
11
174.4715304
21
-167.8589116
0
LINE
8
0
6
CONTINUOUS
10
156.7751606
20
-158.2177175
11
169.3321964
21
-161.5823651
0
LINE
8
0
6
CONTINUOUS
10
169.3321964
20
-161.5823651
11
172.696844
21
-149.0253293
0
LINE
8
0
6
CONTINUOUS
10
172.696844
20
-149.0253293
11
160.1398082
21
-145.6606817
0
LINE
8
0
6
CONTINUOUS
10
160.1398082
20
-145.6606817
11
156.7751606
21
-158.2177175
0
LINE
8
0
6
CONTINUOUS
10
254.1895352
20
-173.5577366
11
265.8738578
21
-167.8589116
0
LINE
8
0
6
CONTINUOUS
10
265.8738578
20
-167.8589116
11
260.1750328
21
-156.174589
0
LINE
8
0
6
CONTINUOUS
10
260.1750328
20
-156.174589
11
248.4907102
21
-161.873414
0
LINE
8
0
6
CONTINUOUS
10
248.4907102
20
-161.873414
11
254.1895352
21
-173.5577366
0
LINE
8
0
6
CONTINUOUS
10
271.0131918
20
-161.5823651
11
283.5702276
21
-158.2177175
0
LINE
8
0
6
CONTINUOUS
10
283.5702276
20
-158.2177175
11
280.20558
21
-145.6606817
0
LINE
8
0
6
CONTINUOUS
10
280.20558
20
-145.6606817
11
267.6485442
21
-149.0253293
0
LINE
8
0
6
CONTINUOUS
10
267.6485442
20
-149.0253293
11
271.0131918
21
-161.5823651
0
CIRCLE
8
0
6
CONTINUOUS
10
220.1726941
20
-164.8661628
40
2.15
0
CIRCLE
8
0
6
CONTINUOUS
10
172.5699953
20
-89.4148782
40
2.15
0
CIRCLE
8
0
6
CONTINUOUS
10
267.7753929
20
-89.4148782
40
2.15
0
CIRCLE
8
0
6
CONTINUOUS
10
164.6308007
20
-134.4402885
40
2.15
0
CIRCLE
8
0
6
CONTINUOUS
10
275.7145875
20
-134.4402885
40
2.15
0
CIRCLE
8
0
6
CONTINUOUS
10
131.673903
20
-102.5148645
40
2.15
0
CIRCLE
8
0
6
CONTINUOUS
10
308.6714852
20
-102.5148645
40
2.15
0
CIRCLE
8
0
6
CONTINUOUS
10
94.4166083
20
-94.9782043
40
2.15
0
CIRCLE
8
0
6
CONTINUOUS
10
345.9287799
20
-94.9782043
40
2.15
0
CIRCLE
8
0
6
CONTINUOUS
10
89.7854114
20
-121.243027
40
2.15
0
CIRCLE
8
0
6
CONTINUOUS
10
350.5599768
20
-121.243027
40
2.15
0
CIRCLE
8
0
6
CONTINUOUS
10
201.2092961
20
-108.5385724
40
2.15
0
CIRCLE
8
0
6
CONTINUOUS
10
239.1360921
20
-108.5385724
40
2.15
0
CIRCLE
8
0
6
CONTINUOUS
10
201.3505296
20
-145.169605
40
2.15
0
CIRCLE
8
0
6
CONTINUOUS
10
238.9948586
20
-145.169605
40
2.15
0
LINE
8
0
6
CONTINUOUS
10
210.5726941
20
-119.5815823
11
214.5726941
21
-119.5815823
0
LINE
8
0
6
CONTINUOUS
10
214.5726941
20
-119.5815823
11
214.5726941
21
-85.5494407
0
LINE
8
0
6
CONTINUOUS
10
210.5726941
20
-90.8209946
11
210.5726941
21
-119.5815823
0
LINE
8
0
6
CONTINUOUS
10
225.7726941
20
-119.5815823
11
229.7726941
21
-119.5815823
0
LINE
8
0
6
CONTINUOUS
10
229.7726941
20
-119.5815823
11
229.7726941
21
-90.8209946
0
LINE
8
0
6
CONTINUOUS
10
225.7726941
20
-85.5494407
11
225.7726941
21
-119.5815823
0
LINE
8
0
6
CONTINUOUS
10
229.7726941
20
-90.8209946
11
241.1726941
21
-90.8209946
0
LINE
8
0
6
CONTINUOUS
10
241.1726941
20
-90.8209946
11
241.1726941
21
-85.5494407
0
LINE
8
0
6
CONTINUOUS
10
199.1726941
20
-90.8209946
11
210.5726941
21
-90.8209946
0
LINE
8
0
6
CONTINUOUS
10
199.1726941
20
-85.5494407
11
199.1726941
21
-90.8209946
0
ENDSEC
0
EOF