0
SECTION
2
HEADER
9
$INSUNITS
70
4
0
ENDSEC
0
SECTION
2
TABLES
0
TABLE
2
LTYPE
0
LTYPE
72
65
70
64
2
CONTINUOUS
3
______
73
0
40
0
0
ENDTAB
0
TABLE
2
LAYER
0
ENDTAB
0
ENDSEC
0
SECTION
2
ENTITIES
0
LINE
8
0
10
68.2221026
20
-123.1475315
11
74.805105
21
-85.8134696
0
LINE
8
0
10
77.1220169
20
-84.1911505
11
110.4787019
21
-90.0728339
0
LINE
8
0
10
112.7935304
20
-88.4621298
11
116.3532934
21
-68.9477076
0
LINE
8
0
10
118.6681219
20
-67.3370035
11
133.3707089
21
-69.9294662
0
LINE
8
0
10
135.676523
20
-68.3650769
11
135.8549921
21
-67.5025098
0
LINE
8
0
10
138.1608062
20
-65.9381205
11
156.8487791
21
-69.2333143
0
LINE
8
0
10
158.4804829
20
-71.4919943
11
158.3531736
21
-72.3635824
0
LINE
8
0
10
159.9848774
20
-74.6222623
11
174.7331269
21
-77.2227766
0
LINE
8
0
10
176.3648307
20
-79.4814565
11
176.2375215
21
-80.3530447
0
LINE
8
0
10
177.8692253
20
-82.6117246
11
194.3575219
21
-85.5190562
0
LINE
8
0
10
228.9878663
20
-85.5190562
11
245.4761629
21
-82.6117246
0
LINE
8
0
10
247.1078667
20
-80.3530447
11
246.9805575
21
-79.4814565
0
LINE
8
0
10
248.6122613
20
-77.2227766
11
263.3605108
21
-74.6222623
0
LINE
8
0
10
264.9922146
20
-72.3635824
11
264.8649053
21
-71.4919943
0
LINE
8
0
10
266.4966091
20
-69.2333143
11
285.184582
21
-65.9381205
0
LINE
8
0
10
287.4903961
20
-67.5025098
11
287.6688652
21
-68.3650769
0
LINE
8
0
10
289.9746793
20
-69.9294662
11
304.6772663
21
-67.3370035
0
LINE
8
0
10
306.9920948
20
-68.9477076
11
310.5518578
21
-88.4621298
0
LINE
8
0
10
312.8666863
20
-90.0728339
11
346.2233713
21
-84.1911505
0
LINE
8
0
10
348.5402832
20
-85.8134696
11
355.1232856
21
-123.1475315
0
LINE
8
0
10
353.5009665
20
-125.4644434
11
316.1588957
21
-132.0488579
0
LINE
8
0
10
313.8530816
20
-130.4844688
11
313.6746124
21
-129.6219013
0
LINE
8
0
10
311.3687983
20
-128.0575122
11
296.6205489
21
-130.6580264
0
LINE
8
0
10
294.3147348
20
-129.0936371
11
294.1362657
21
-128.2310699
0
LINE
8
0
10
291.8304516
20
-126.6666806
11
281.0219255
21
-128.5725154
0
LINE
8
0
10
279.3902217
20
-130.8311953
11
279.517531
21
-131.7027834
0
LINE
8
0
10
277.8858272
20
-133.9614633
11
268.3957869
21
-135.6348135
0
LINE
8
0
10
266.8009142
20
-138.0819008
11
272.1405473
21
-159.8014448
0
LINE
8
0
10
270.7160163
20
-162.2107683
11
255.8917753
21
-166.1829117
0
LINE
8
0
10
254.4095507
20
-168.138208
11
254.423919
21
-169.3638432
0
LINE
8
0
10
253.3007986
20
-171.1848759
11
235.3346562
21
-179.9475491
0
LINE
8
0
10
234.4579139
20
-180.149961
11
188.8874743
21
-180.149961
0
LINE
8
0
10
188.010732
20
-179.9475491
11
170.0445896
21
-171.1848759
0
LINE
8
0
10
168.9214692
20
-169.3638432
11
168.9358375
21
-168.138208
0
LINE
8
0
10
167.4536129
20
-166.1829117
11
152.6293719
21
-162.2107683
0
LINE
8
0
10
151.2048409
20
-159.8014448
11
156.544474
21
-138.0819008
0
LINE
8
0
10
154.9496013
20
-135.6348135
11
145.459561
21
-133.9614633
0
LINE
8
0
10
143.8278572
20
-131.7027834
11
143.9551665
21
-130.8311953
0
LINE
8
0
10
142.3234627
20
-128.5725154
11
131.5149366
21
-126.6666806
0
LINE
8
0
10
129.2091225
20
-128.2310699
11
129.0306534
21
-129.0936371
0
LINE
8
0
10
126.7248393
20
-130.6580264
11
111.9765899
21
-128.0575122
0
LINE
8
0
10
109.6707758
20
-129.6219013
11
109.4923066
21
-130.4844688
0
LINE
8
0
10
107.1864925
20
-132.0488579
11
69.8444217
21
-125.4644434
0
ARC
8
0
10
76.7747206
20
-86.1607659
40
2
50
79.9999992
51
169.9999992
0
ARC
8
0
10
110.8259983
20
-88.1032184
40
2
50
259.9999992
51
349.661943
0
ARC
8
0
10
118.3208255
20
-69.306619
40
2
50
79.9999992
51
169.661943
0
ARC
8
0
10
133.7180053
20
-67.9598507
40
2
50
259.9999992
51
348.3101926
0
ARC
8
0
10
137.8135098
20
-67.907736
40
2
50
79.9999992
51
168.3101926
0
ARC
8
0
10
156.5014827
20
-71.2029299
40
2
50
351.6898091
51
79.9999992
0
ARC
8
0
10
160.3321738
20
-72.6526468
40
2
50
171.6898091
51
259.9999992
0
ARC
8
0
10
174.3858305
20
-79.1923921
40
2
50
351.6898091
51
79.9999992
0
ARC
8
0
10
178.2165217
20
-80.6421091
40
2
50
171.6898091
51
259.9999992
0
ARC
8
0
10
194.7048182
20
-83.5494407
40
2
50
259.9999992
51
265.0191487
0
ARC
8
0
10
228.64057
20
-83.5494407
40
2
50
274.9808513
51
280.0000008
0
ARC
8
0
10
245.1288665
20
-80.6421091
40
2
50
280.0000008
51
8.3101909
0
ARC
8
0
10
248.9595577
20
-79.1923921
40
2
50
100.0000008
51
188.3101909
0
ARC
8
0
10
263.0132144
20
-72.6526468
40
2
50
280.0000008
51
8.3101909
0
ARC
8
0
10
266.8439055
20
-71.2029299
40
2
50
100.0000008
51
188.3101909
0
ARC
8
0
10
285.5318784
20
-67.907736
40
2
50
11.6898074
51
100.0000008
0
ARC
8
0
10
289.6273829
20
-67.9598507
40
2
50
191.6898074
51
280.0000008
0
ARC
8
0
10
305.0245627
20
-69.306619
40
2
50
10.338057
51
100.0000008
0
ARC
8
0
10
312.5193899
20
-88.1032184
40
2
50
190.338057
51
280.0000008
0
ARC
8
0
10
346.5706676
20
-86.1607659
40
2
50
10.0000008
51
100.0000008
0
ARC
8
0
10
353.1536701
20
-123.4948278
40
2
50
280.0000008
51
10.0000008
0
ARC
8
0
10
315.8115993
20
-130.0792424
40
2
50
191.689813
51
280.0000008
0
ARC
8
0
10
311.7160947
20
-130.0271277
40
2
50
11.689813
51
100.0000008
0
ARC
8
0
10
296.2732525
20
-128.6884109
40
2
50
191.6898074
51
280.0000008
0
ARC
8
0
10
292.177748
20
-128.6362961
40
2
50
11.6898074
51
100.0000008
0
ARC
8
0
10
281.3692219
20
-130.5421309
40
2
50
100.0000008
51
188.3101909
0
ARC
8
0
10
277.5385308
20
-131.9918478
40
2
50
280.0000008
51
8.3101909
0
ARC
8
0
10
268.7430833
20
-137.604429
40
2
50
100.0000008
51
193.8119446
0
ARC
8
0
10
270.1983782
20
-160.2789166
40
2
50
284.9999979
51
13.8119446
0
ARC
8
0
10
256.4094133
20
-168.1147634
40
2
50
104.9999979
51
180.6716537
0
ARC
8
0
10
252.4240564
20
-169.3872878
40
2
50
295.9999988
51
0.6716537
0
ARC
8
0
10
234.4579139
20
-178.149961
40
2
50
270
51
295.9999988
0
ARC
8
0
10
188.8874743
20
-178.149961
40
2
50
244.0000012
51
270
0
ARC
8
0
10
170.9213318
20
-169.3872878
40
2
50
179.3283463
51
244.0000012
0
ARC
8
0
10
166.9359749
20
-168.1147634
40
2
50
359.3283463
51
75.0000021
0
ARC
8
0
10
153.14701
20
-160.2789166
40
2
50
166.1880554
51
255.0000021
0
ARC
8
0
10
154.6023049
20
-137.604429
40
2
50
346.1880554
51
79.9999992
0
ARC
8
0
10
145.8068574
20
-131.9918478
40
2
50
171.6898091
51
259.9999992
0
ARC
8
0
10
141.9761663
20
-130.5421309
40
2
50
351.6898091
51
79.9999992
0
ARC
8
0
10
131.1676402
20
-128.6362961
40
2
50
79.9999992
51
168.3101926
0
ARC
8
0
10
127.0721357
20
-128.6884109
40
2
50
259.9999992
51
348.3101926
0
ARC
8
0
10
111.6292935
20
-130.0271277
40
2
50
79.9999992
51
168.310187
0
ARC
8
0
10
107.5337889
20
-130.0792424
40
2
50
259.9999992
51
348.310187
0
ARC
8
0
10
70.1917181
20
-123.4948278
40
2
50
169.9999992
51
259.9999992
0
LINE
8
0
10
73.006766
20
-121.5237101
11
86.7940745
21
-123.9547846
0
LINE
8
0
10
86.7940745
20
-123.9547846
11
89.225149
21
-110.1674761
0
LINE
8
0
10
89.225149
20
-110.1674761
11
75.4378405
21
-107.7364016
0
LINE
8
0
10
75.4378405
20
-107.7364016
11
73.006766
21
-121.5237101
0
LINE
8
0
10
76.3147638
20
-102.7631224
11
90.1020723
21
-105.1941969
0
LINE
8
0
10
90.1020723
20
-105.1941969
11
92.5331468
21
-91.4068884
0
LINE
8
0
10
92.5331468
20
-91.4068884
11
78.7458383
21
-88.9758139
0
LINE
8
0
10
78.7458383
20
-88.9758139
11
76.3147638
21
-102.7631224
0
LINE
8
0
10
91.7181133
20
-124.8230254
11
105.5054218
21
-127.2540999
0
LINE
8
0
10
105.5054218
20
-127.2540999
11
107.9364963
21
-113.4667914
0
LINE
8
0
10
107.9364963
20
-113.4667914
11
94.1491878
21
-111.0357169
0
LINE
8
0
10
94.1491878
20
-111.0357169
11
91.7181133
21
-124.8230254
0
LINE
8
0
10
95.0261111
20
-106.0624377
11
108.8134196
21
-108.4935122
0
LINE
8
0
10
108.8134196
20
-108.4935122
11
111.2444941
21
-94.7062037
0
LINE
8
0
10
111.2444941
20
-94.7062037
11
97.4571856
21
-92.2751292
0
LINE
8
0
10
97.4571856
20
-92.2751292
11
95.0261111
21
-106.0624377
0
LINE
8
0
10
111.2564601
20
-123.4321939
11
125.0437686
21
-125.8632684
0
LINE
8
0
10
125.0437686
20
-125.8632684
11
127.4748431
21
-112.0759599
0
LINE
8
0
10
127.4748431
20
-112.0759599
11
113.6875346
21
-109.6448854
0
LINE
8
0
10
113.6875346
20
-109.6448854
11
111.2564601
21
-123.4321939
0
LINE
8
0
10
114.5644579
20
-104.6716062
11
128.3517664
21
-107.1026807
0
LINE
8
0
10
128.3517664
20
-107.1026807
11
130.7828409
21
-93.3153722
0
LINE
8
0
10
130.7828409
20
-93.3153722
11
116.9955324
21
-90.8842977
0
LINE
8
0
10
116.9955324
20
-90.8842977
11
114.5644579
21
-104.6716062
0
LINE
8
0
10
117.8724557
20
-85.9110185
11
131.6597642
21
-88.342093
0
LINE
8
0
10
131.6597642
20
-88.342093
11
134.0908387
21
-74.5547845
0
LINE
8
0
10
134.0908387
20
-74.5547845
11
120.3035302
21
-72.12371
0
LINE
8
0
10
120.3035302
20
-72.12371
11
117.8724557
21
-85.9110185
0
LINE
8
0
10
130.7948068
20
-122.0413623
11
144.5821153
21
-124.4724368
0
LINE
8
0
10
144.5821153
20
-124.4724368
11
147.0131898
21
-110.6851283
0
LINE
8
0
10
147.0131898
20
-110.6851283
11
133.2258813
21
-108.2540538
0
LINE
8
0
10
133.2258813
20
-108.2540538
11
130.7948068
21
-122.0413623
0
LINE
8
0
10
134.1028046
20
-103.2807747
11
147.8901131
21
-105.7118492
0
LINE
8
0
10
147.8901131
20
-105.7118492
11
150.3211876
21
-91.9245407
0
LINE
8
0
10
150.3211876
20
-91.9245407
11
136.5338791
21
-89.4934662
0
LINE
8
0
10
136.5338791
20
-89.4934662
11
134.1028046
21
-103.2807747
0
LINE
8
0
10
137.4108024
20
-84.520187
11
151.1981109
21
-86.9512615
0
LINE
8
0
10
151.1981109
20
-86.9512615
11
153.6291854
21
-73.163953
0
LINE
8
0
10
153.6291854
20
-73.163953
11
139.8418769
21
-70.7328785
0
LINE
8
0
10
139.8418769
20
-70.7328785
11
137.4108024
21
-84.520187
0
LINE
8
0
10
148.6791547
20
-130.0308246
11
162.4664632
21
-132.4618991
0
LINE
8
0
10
162.4664632
20
-132.4618991
11
164.8975377
21
-118.6745906
0
LINE
8
0
10
164.8975377
20
-118.6745906
11
151.1102292
21
-116.2435161
0
LINE
8
0
10
151.1102292
20
-116.2435161
11
148.6791547
21
-130.0308246
0
LINE
8
0
10
151.9871525
20
-111.270237
11
165.774461
21
-113.7013115
0
LINE
8
0
10
165.774461
20
-113.7013115
11
168.2055355
21
-99.914003
0
LINE
8
0
10
168.2055355
20
-99.914003
11
154.418227
21
-97.4829285
0
LINE
8
0
10
154.418227
20
-97.4829285
11
151.9871525
21
-111.270237
0
LINE
8
0
10
155.2951503
20
-92.5096493
11
169.0824588
21
-94.9407238
0
LINE
8
0
10
169.0824588
20
-94.9407238
11
171.5135333
21
-81.1534153
0
LINE
8
0
10
171.5135333
20
-81.1534153
11
157.7262248
21
-78.7223408
0
LINE
8
0
10
157.7262248
20
-78.7223408
11
155.2951503
21
-92.5096493
0
LINE
8
0
10
166.5635026
20
-138.0202869
11
180.3508111
21
-140.4513614
0
LINE
8
0
10
180.3508111
20
-140.4513614
11
182.7818856
21
-126.6640529
0
LINE
8
0
10
182.7818856
20
-126.6640529
11
168.9945771
21
-124.2329784
0
LINE
8
0
10
168.9945771
20
-124.2329784
11
166.5635026
21
-138.0202869
0
LINE
8
0
10
169.8715004
20
-119.2596993
11
183.6588089
21
-121.6907738
0
LINE
8
0
10
183.6588089
20
-121.6907738
11
186.0898834
21
-107.9034653
0
LINE
8
0
10
186.0898834
20
-107.9034653
11
172.3025749
21
-105.4723908
0
LINE
8
0
10
172.3025749
20
-105.4723908
11
169.8715004
21
-119.2596993
0
LINE
8
0
10
173.1794981
20
-100.4991116
11
186.9668066
21
-102.9301861
0
LINE
8
0
10
186.9668066
20
-102.9301861
11
189.3978811
21
-89.1428776
0
LINE
8
0
10
189.3978811
20
-89.1428776
11
175.6105726
21
-86.7118031
0
LINE
8
0
10
175.6105726
20
-86.7118031
11
173.1794981
21
-100.4991116
0
LINE
8
0
10
336.5513137
20
-123.9547846
11
350.3386222
21
-121.5237101
0
LINE
8
0
10
350.3386222
20
-121.5237101
11
347.9075477
21
-107.7364016
0
LINE
8
0
10
347.9075477
20
-107.7364016
11
334.1202392
21
-110.1674761
0
LINE
8
0
10
334.1202392
20
-110.1674761
11
336.5513137
21
-123.9547846
0
LINE
8
0
10
333.2433159
20
-105.1941969
11
347.0306244
21
-102.7631224
0
LINE
8
0
10
347.0306244
20
-102.7631224
11
344.5995499
21
-88.9758139
0
LINE
8
0
10
344.5995499
20
-88.9758139
11
330.8122414
21
-91.4068884
0
LINE
8
0
10
330.8122414
20
-91.4068884
11
333.2433159
21
-105.1941969
0
LINE
8
0
10
317.8399664
20
-127.2540999
11
331.6272749
21
-124.8230254
0
LINE
8
0
10
331.6272749
20
-124.8230254
11
329.1962004
21
-111.0357169
0
LINE
8
0
10
329.1962004
20
-111.0357169
11
315.4088919
21
-113.4667914
0
LINE
8
0
10
315.4088919
20
-113.4667914
11
317.8399664
21
-127.2540999
0
LINE
8
0
10
314.5319686
20
-108.4935122
11
328.3192771
21
-106.0624377
0
LINE
8
0
10
328.3192771
20
-106.0624377
11
325.8882026
21
-92.2751292
0
LINE
8
0
10
325.8882026
20
-92.2751292
11
312.1008941
21
-94.7062037
0
LINE
8
0
10
312.1008941
20
-94.7062037
11
314.5319686
21
-108.4935122
0
LINE
8
0
10
298.3016196
20
-125.8632684
11
312.0889281
21
-123.4321939
0
LINE
8
0
10
312.0889281
20
-123.4321939
11
309.6578536
21
-109.6448854
0
LINE
8
0
10
309.6578536
20
-109.6448854
11
295.8705451
21
-112.0759599
0
LINE
8
0
10
295.8705451
20
-112.0759599
11
298.3016196
21
-125.8632684
0
LINE
8
0
10
294.9936218
20
-107.1026807
11
308.7809303
21
-104.6716062
0
LINE
8
0
10
308.7809303
20
-104.6716062
11
306.3498558
21
-90.8842977
0
LINE
8
0
10
306.3498558
20
-90.8842977
11
292.5625473
21
-93.3153722
0
LINE
8
0
10
292.5625473
20
-93.3153722
11
294.9936218
21
-107.1026807
0
LINE
8
0
10
291.685624
20
-88.342093
11
305.4729325
21
-85.9110185
0
LINE
8
0
10
305.4729325
20
-85.9110185
11
303.041858
21
-72.12371
0
LINE
8
0
10
303.041858
20
-72.12371
11
289.2545495
21
-74.5547845
0
LINE
8
0
10
289.2545495
20
-74.5547845
11
291.685624
21
-88.342093
0
LINE
8
0
10
278.7632729
20
-124.4724368
11
292.5505814
21
-122.0413623
0
LINE
8
0
10
292.5505814
20
-122.0413623
11
290.1195069
21
-108.2540538
0
LINE
8
0
10
290.1195069
20
-108.2540538
11
276.3321984
21
-110.6851283
0
LINE
8
0
10
276.3321984
20
-110.6851283
11
278.7632729
21
-124.4724368
0
LINE
8
0
10
275.4552751
20
-105.7118492
11
289.2425836
21
-103.2807747
0
LINE
8
0
10
289.2425836
20
-103.2807747
11
286.8115091
21
-89.4934662
0
LINE
8
0
10
286.8115091
20
-89.4934662
11
273.0242006
21
-91.9245407
0
LINE
8
0
10
273.0242006
20
-91.9245407
11
275.4552751
21
-105.7118492
0
LINE
8
0
10
272.1472773
20
-86.9512615
11
285.9345858
21
-84.520187
0
LINE
8
0
10
285.9345858
20
-84.520187
11
283.5035113
21
-70.7328785
0
LINE
8
0
10
283.5035113
20
-70.7328785
11
269.7162028
21
-73.163953
0
LINE
8
0
10
269.7162028
20
-73.163953
11
272.1472773
21
-86.9512615
0
LINE
8
0
10
260.878925
20
-132.4618991
11
274.6662335
21
-130.0308246
0
LINE
8
0
10
274.6662335
20
-130.0308246
11
272.235159
21
-116.2435161
0
LINE
8
0
10
272.235159
20
-116.2435161
11
258.4478505
21
-118.6745906
0
LINE
8
0
10
258.4478505
20
-118.6745906
11
260.878925
21
-132.4618991
0
LINE
8
0
10
257.5709272
20
-113.7013115
11
271.3582357
21
-111.270237
0
LINE
8
0
10
271.3582357
20
-111.270237
11
268.9271612
21
-97.4829285
0
LINE
8
0
10
268.9271612
20
-97.4829285
11
255.1398527
21
-99.914003
0
LINE
8
0
10
255.1398527
20
-99.914003
11
257.5709272
21
-113.7013115
0
LINE
8
0
10
254.2629294
20
-94.9407238
11
268.0502379
21
-92.5096493
0
LINE
8
0
10
268.0502379
20
-92.5096493
11
265.6191634
21
-78.7223408
0
LINE
8
0
10
265.6191634
20
-78.7223408
11
251.8318549
21
-81.1534153
0
LINE
8
0
10
251.8318549
20
-81.1534153
11
254.2629294
21
-94.9407238
0
LINE
8
0
10
242.9945771
20
-140.4513614
11
256.7818856
21
-138.0202869
0
LINE
8
0
10
256.7818856
20
-138.0202869
11
254.3508111
21
-124.2329784
0
LINE
8
0
10
254.3508111
20
-124.2329784
11
240.5635026
21
-126.6640529
0
LINE
8
0
10
240.5635026
20
-126.6640529
11
242.9945771
21
-140.4513614
0
LINE
8
0
10
239.6865793
20
-121.6907738
11
253.4738878
21
-119.2596993
0
LINE
8
0
10
253.4738878
20
-119.2596993
11
251.0428133
21
-105.4723908
0
LINE
8
0
10
251.0428133
20
-105.4723908
11
237.2555048
21
-107.9034653
0
LINE
8
0
10
237.2555048
20
-107.9034653
11
239.6865793
21
-121.6907738
0
LINE
8
0
10
236.3785816
20
-102.9301861
11
250.1658901
21
-100.4991116
0
LINE
8
0
10
250.1658901
20
-100.4991116
11
247.7348156
21
-86.7118031
0
LINE
8
0
10
247.7348156
20
-86.7118031
11
233.9475071
21
-89.1428776
0
LINE
8
0
10
233.9475071
20
-89.1428776
11
236.3785816
21
-102.9301861
0
LINE
8
0
10
173.8029478
20
-168.0891231
11
186.3860645
21
-174.2263192
0
LINE
8
0
10
186.3860645
20
-174.2263192
11
192.5232606
21
-161.6432025
0
LINE
8
0
10
192.5232606
20
-161.6432025
11
179.9401439
21
-155.5060064
0
LINE
8
0
10
179.9401439
20
-155.5060064
11
173.8029478
21
-168.0891231
0
LINE
8
0
10
156.1627882
20
-158.5712709
11
169.6857498
21
-162.1947375
0
LINE
8
0
10
169.6857498
20
-162.1947375
11
173.3092164
21
-148.6717759
0
LINE
8
0
10
173.3092164
20
-148.6717759
11
159.7862548
21
-145.0483093
0
LINE
8
0
10
159.7862548
20
-145.0483093
11
156.1627882
21
-158.5712709
0
LINE
8
0
10
236.9593237
20
-174.2263192
11
249.5424404
21
-168.0891231
0
LINE
8
0
10
249.5424404
20
-168.0891231
11
243.4052443
21
-155.5060064
0
LINE
8
0
10
243.4052443
20
-155.5060064
11
230.8221276
21
-161.6432025
0
LINE
8
0
10
230.8221276
20
-161.6432025
11
236.9593237
21
-174.2263192
0
LINE
8
0
10
253.6596384
20
-162.1947375
11
267.1826
21
-158.5712709
0
LINE
8
0
10
267.1826
20
-158.5712709
11
263.5591334
21
-145.0483093
0
LINE
8
0
10
263.5591334
20
-145.0483093
11
250.0361718
21
-148.6717759
0
LINE
8
0
10
250.0361718
20
-148.6717759
11
253.6596384
21
-162.1947375
0
LINE
8
0
10
228.8142156
20
-85.5418882
11
238.9787825
21
-143.1880118
0
LINE
8
0
10
236.0243592
20
-146.7089564
11
187.321029
21
-146.7089564
0
LINE
8
0
10
184.3666057
20
-143.1880118
11
194.5311726
21
-85.5418882
0
ARC
8
0
10
236.0243592
20
-143.7089564
40
3
50
270
51
10.0000008
0
ARC
8
0
10
187.321029
20
-143.7089564
40
3
50
169.9999992
51
270
0
CIRCLE
8
0
10
211.6726941
20
-164.8661628
40
2.15
0
CIRCLE
8
0
10
172.5699953
20
-89.4148782
40
2.15
0
CIRCLE
8
0
10
250.7753929
20
-89.4148782
40
2.15
0
CIRCLE
8
0
10
164.6308007
20
-134.4402885
40
2.15
0
CIRCLE
8
0
10
258.7145875
20
-134.4402885
40
2.15
0
CIRCLE
8
0
10
131.673903
20
-102.5148645
40
2.15
0
CIRCLE
8
0
10
291.6714852
20
-102.5148645
40
2.15
0
CIRCLE
8
0
10
94.4166083
20
-94.9782043
40
2.15
0
CIRCLE
8
0
10
328.9287799
20
-94.9782043
40
2.15
0
CIRCLE
8
0
10
89.7854114
20
-121.243027
40
2.15
0
CIRCLE
8
0
10
333.5599768
20
-121.243027
40
2.15
0
ENDSEC
0
EOF